<svg id="cart" xmlns="http://www.w3.org/2000/svg" width="16.169" height="13.363" viewBox="0 0 16.169 13.363">
  <path id="Icon_awesome-cart-plus" data-name="Icon awesome-cart-plus" d="M2,8.352H10.23l-.184.835H2.511a.639.639,0,0,0-.657.765l.155.634A1.457,1.457,0,0,0,1.123,11.9a1.522,1.522,0,0,0,1.6,1.461,1.528,1.528,0,0,0,1.548-1.421,1.407,1.407,0,0,0-.472-1.084H9.68A1.409,1.409,0,0,0,9.207,11.9a1.579,1.579,0,0,0,3.142.079,1.44,1.44,0,0,0-.787-1.346L13.534,1.67H15.5a.651.651,0,0,0,.674-.626V.626A.651.651,0,0,0,15.5,0H12.617a.664.664,0,0,0-.66.5L11.7,1.67H.674a.639.639,0,0,0-.657.765L1.344,7.864A.665.665,0,0,0,2,8.352ZM4.716,4.385H6.063V3.341a.434.434,0,0,1,.449-.418h.449a.434.434,0,0,1,.449.418V4.385H8.758a.434.434,0,0,1,.449.418V5.22a.434.434,0,0,1-.449.418H7.411V6.681a.434.434,0,0,1-.449.418H6.512a.434.434,0,0,1-.449-.418V5.638H4.716a.434.434,0,0,1-.449-.418V4.8A.434.434,0,0,1,4.716,4.385Z" transform="translate(0)" fill="#01c1e5"/>
</svg>
