<svg id="Group_376" data-name="Group 376" xmlns="http://www.w3.org/2000/svg" width="24.346" height="20.858" viewBox="0 0 24.346 20.858">
  <path id="Path_23" data-name="Path 23" d="M34.045,102.541h4.231l-.742-.565c.123.375.247.75.37,1.128q.447,1.352.891,2.7.536,1.626,1.074,3.257.466,1.414.93,2.828c.152.457.3.917.452,1.372l.008.021a.771.771,0,0,0,1.487-.408c-.123-.375-.247-.75-.37-1.128q-.447-1.352-.891-2.7-.536-1.63-1.074-3.26-.466-1.414-.93-2.828c-.152-.457-.293-.917-.452-1.372l-.008-.021a.794.794,0,0,0-.742-.565H34.048a.771.771,0,0,0,0,1.541Z" transform="translate(-33.276 -101)" fill="#a5a5a5"/>
  <path id="Path_24" data-name="Path 24" d="M288.953,541.94q-.624,1.114-1.251,2.225c-.059.108-.121.213-.18.321a.778.778,0,0,0,.665,1.158h11.765c.542,0,1.087.01,1.631,0h.023a.771.771,0,1,0,0-1.541H289.842c-.542,0-1.089-.015-1.631,0h-.023l.665,1.159q.624-1.114,1.251-2.225c.059-.108.121-.213.18-.321a.77.77,0,1,0-1.331-.776Z" transform="translate(-280.894 -530.249)" fill="#a5a5a5"/>
  <circle id="Ellipse_26" data-name="Ellipse 26" cx="1.749" cy="1.749" r="1.749" transform="translate(16.571 16.846)" fill="#a5a5a5"/>
  <path id="Path_25" data-name="Path 25" d="M658.4,739.235a2.3,2.3,0,0,0,1.51,2.132,2.264,2.264,0,0,0,2.469-.658,2.263,2.263,0,1,0-3.979-1.474.514.514,0,1,0,1.028,0c0-.041,0-.085.005-.126a.378.378,0,0,1,.005-.054c.008-.1,0,.034-.005.031a1,1,0,0,1,.062-.252c.008-.021.023-.108.041-.113s-.046.095-.018.044c.01-.021.021-.041.028-.062a2.337,2.337,0,0,1,.131-.218c.049-.075-.07.08.013-.015.026-.028.051-.059.08-.087s.057-.056.085-.082c.013-.01.026-.023.039-.033s.092-.051.026-.023-.015.013,0,0,.036-.026.057-.039a.939.939,0,0,1,.087-.051c.039-.023.08-.041.121-.062.013-.008.067-.033,0,0s.026-.008.033-.01a1.581,1.581,0,0,1,.216-.062L660.5,738c.057-.013-.049.005-.049.005.046,0,.1-.01.141-.01a2.029,2.029,0,0,1,.252.008c.1.008-.1-.018.021.005.046.008.09.021.136.031s.077.023.116.036a.566.566,0,0,1,.064.023c0,.008-.1-.049-.044-.018.072.044.152.077.224.123.018.013.036.026.056.039s.057.023,0,0-.018-.015,0,0l.051.044a2.3,2.3,0,0,1,.175.18c.077.085-.036-.059.013.016.021.033.044.064.064.1s.041.069.059.1l.023.046c.049.092.01-.008,0-.013.031.01.064.2.074.229l.023.1c.021.1,0-.031,0-.033.013.013.008.072.008.087a1.777,1.777,0,0,1,0,.234.649.649,0,0,0-.005.072c0,.051-.031.044.005-.031a.8.8,0,0,0-.028.136c-.018.072-.046.141-.067.213s.046-.087.013-.028a.245.245,0,0,0-.021.046c-.021.041-.041.08-.064.118s-.041.067-.064.1c-.069.105.049-.051-.01.018a1.948,1.948,0,0,1-.175.182c-.01.01-.072.077-.09.077,0,0,.105-.072.023-.021-.015.01-.028.018-.041.028-.072.046-.146.085-.221.123s.093-.031-.018.008l-.113.038-.118.031-.051.01c-.113.026.082-.005.015,0a2.055,2.055,0,0,1-.252.01c-.041,0-.082-.005-.126-.008-.015,0-.077-.008,0,0s-.018-.005-.036-.008a1.947,1.947,0,0,1-.264-.077c-.015-.005-.067-.031,0,0s-.015-.008-.031-.015c-.041-.02-.08-.041-.118-.064s-.074-.049-.113-.074c-.062-.038.008.021.023.021-.01,0-.044-.036-.051-.044a1.876,1.876,0,0,1-.19-.19.3.3,0,0,1-.044-.051c0,.01.062.087.021.023-.026-.039-.051-.074-.075-.113s-.049-.09-.072-.134c-.054-.105.026.082-.015-.033a1.891,1.891,0,0,1-.075-.267.161.161,0,0,0-.01-.051c.039.085.008.072,0,.013s-.008-.108-.008-.162a.52.52,0,0,0-1.04,0Z" transform="translate(-642.342 -720.64)" fill="#a5a5a5"/>
  <circle id="Ellipse_27" data-name="Ellipse 27" cx="1.749" cy="1.749" r="1.749" transform="translate(7.717 16.846)" fill="#a5a5a5"/>
  <path id="Path_26" data-name="Path 26" d="M313.7,739.235a2.3,2.3,0,0,0,1.51,2.132,2.264,2.264,0,0,0,2.469-.658,2.263,2.263,0,1,0-3.979-1.474.514.514,0,1,0,1.027,0c0-.041,0-.085.005-.126a.382.382,0,0,1,.005-.054c.008-.1,0,.034-.005.031a1,1,0,0,1,.062-.252c.008-.021.023-.108.041-.113s-.046.095-.018.044a.658.658,0,0,0,.028-.062,2.337,2.337,0,0,1,.131-.218c.049-.075-.069.08.013-.015.026-.028.051-.059.08-.087s.057-.056.085-.082l.038-.033c.018-.015.092-.051.026-.023s-.015.013,0,0,.036-.026.057-.039a.937.937,0,0,1,.087-.051c.039-.023.08-.041.121-.062.013-.008.067-.033,0,0s.026-.008.033-.01a1.582,1.582,0,0,1,.216-.062L315.8,738c.056-.013-.049.005-.049.005.046,0,.1-.01.141-.01a2.029,2.029,0,0,1,.252.008c.1.008-.1-.018.021.005.046.008.09.021.136.031s.077.023.116.036a.578.578,0,0,1,.064.023c0,.008-.1-.049-.044-.018.072.044.152.077.223.123.018.013.036.026.057.039s.056.023,0,0-.018-.015,0,0l.051.044a2.305,2.305,0,0,1,.175.18c.077.085-.036-.059.013.016.021.033.044.064.064.1s.041.069.059.1l.023.046c.049.092.01-.008,0-.013.031.01.064.2.074.229l.023.1c.021.1,0-.031,0-.033.013.013.008.072.008.087a1.767,1.767,0,0,1,0,.234.642.642,0,0,0-.005.072c0,.051-.031.044.005-.031a.8.8,0,0,0-.028.136c-.018.072-.046.141-.067.213s.046-.087.013-.028a.247.247,0,0,0-.021.046c-.021.041-.041.08-.064.118s-.041.067-.064.1c-.069.105.049-.051-.01.018a1.946,1.946,0,0,1-.175.182c-.01.01-.072.077-.09.077,0,0,.105-.072.023-.021-.015.01-.028.018-.041.028-.072.046-.146.085-.221.123s.092-.031-.018.008l-.113.038-.118.031-.051.01c-.113.026.082-.005.015,0a2.056,2.056,0,0,1-.252.01c-.041,0-.082-.005-.126-.008-.015,0-.077-.008,0,0s-.018-.005-.036-.008a1.947,1.947,0,0,1-.265-.077c-.015-.005-.067-.031,0,0s-.015-.008-.031-.015c-.041-.02-.08-.041-.118-.064s-.074-.049-.113-.074c-.062-.038.008.021.023.021-.01,0-.044-.036-.051-.044a1.9,1.9,0,0,1-.19-.19.3.3,0,0,1-.044-.051c0,.01.062.087.021.023-.026-.039-.051-.074-.075-.113s-.049-.09-.072-.134c-.054-.105.026.082-.015-.033a1.871,1.871,0,0,1-.075-.267.164.164,0,0,0-.01-.051c.039.085.008.072,0,.013s-.008-.108-.008-.162a.52.52,0,0,0-1.04,0Z" transform="translate(-306.494 -720.64)" fill="#a5a5a5"/>
  <g id="Group_368" data-name="Group 368" transform="translate(5.555 3.509)">
    <path id="Path_27" data-name="Path 27" d="M287.452,258l-3.118,8.04H272.351L269.7,258Z" transform="translate(-269.182 -257.476)" fill="#a5a5a5"/>
    <path id="Path_28" data-name="Path 28" d="M267.3,237.994q-.528,1.36-1.053,2.72-.84,2.169-1.677,4.336l-.385,1,.5-.378H254.168c-.483,0-.971-.021-1.456,0h-.021l.5.378q-.451-1.368-.9-2.733-.713-2.162-1.423-4.326c-.11-.331-.218-.663-.329-1l-.5.65h17.033c.231,0,.462.005.691,0h.031a.514.514,0,1,0,0-1.027H250.762c-.231,0-.462-.005-.691,0h-.031a.518.518,0,0,0-.5.65q.451,1.368.9,2.733.713,2.162,1.423,4.326c.11.331.218.663.329,1a.531.531,0,0,0,.5.378H263.2c.483,0,.971.018,1.456,0h.021a.534.534,0,0,0,.5-.378q.528-1.36,1.053-2.72.84-2.169,1.677-4.336l.385-1a.515.515,0,0,0-.36-.632A.527.527,0,0,0,267.3,237.994Z" transform="translate(-249.522 -237.611)" fill="#a5a5a5"/>
  </g>
</svg>
