<svg xmlns="http://www.w3.org/2000/svg" width="20.415" height="21.579" viewBox="0 0 20.415 21.579">
  <g id="Component_9_1" data-name="Component 9 – 1" transform="translate(0.3 0.421)">
    <path id="Path_29" data-name="Path 29" d="M6.929,19.588v-3.2A1.479,1.479,0,0,1,8.4,14.916h3a1.479,1.479,0,0,1,1.485,1.474h0v3.189a1.284,1.284,0,0,0,1.279,1.279h2.045a3.609,3.609,0,0,0,2.548-1.042,3.556,3.556,0,0,0,1.056-2.527V8.2a2.579,2.579,0,0,0-.934-1.984L11.934.7A3.249,3.249,0,0,0,7.807.777l-6.8,5.442A2.58,2.58,0,0,0,0,8.2V17.28a3.592,3.592,0,0,0,3.6,3.579h2a1.284,1.284,0,0,0,.911-.369,1.265,1.265,0,0,0,.378-.9Z" transform="translate(0 0)" fill="none" stroke="#a5a5a5" stroke-width="0.6"/>
  </g>
</svg>
