<svg xmlns="http://www.w3.org/2000/svg" width="33.373" height="35.232" viewBox="0 0 33.373 35.232">
  <g id="Group_7" data-name="Group 7" transform="translate(0 -0.19)">
    <path id="Fill_1" data-name="Fill 1" d="M14.068,23.56h-7.1a4.2,4.2,0,0,1-4.184-4.17V5.26a2.6,2.6,0,0,1,.938-1.991l1.255-.931A1.389,1.389,0,0,0,3.365.133L2.088,1.09A5.368,5.368,0,0,0,0,5.26V19.4a6.978,6.978,0,0,0,6.965,6.965h7.1a1.39,1.39,0,0,0,0-2.781Z" transform="translate(0 9.053)" fill="#2b0752"/>
    <path id="Fill_4" data-name="Fill 4" d="M24.7,14.09a5.457,5.457,0,0,0-2.026-4.17l-10.667-8.5a6.406,6.406,0,0,0-8.034,0L.594,3.872a1.414,1.414,0,1,0,1.65,2.3L5.671,3.607a3.642,3.642,0,0,1,4.635,0l10.667,8.5a2.631,2.631,0,0,1,.993,2.012V28.267a4.174,4.174,0,0,1-4.17,4.17h-3.17a.584.584,0,0,1-.582-.59V25.472a3.689,3.689,0,0,0-3.676-3.69H5.733a3.7,3.7,0,0,0-3.69,3.69v2.442a1.391,1.391,0,0,0,2.783,0V25.472a.867.867,0,0,1,.256-.646.909.909,0,0,1,.638-.263h4.635a.9.9,0,0,1,.895.9v6.389a3.38,3.38,0,0,0,3.378,3.37h3.086a6.965,6.965,0,0,0,6.965-6.965Z" transform="translate(8.674 0.19)" fill="#2b0752"/>
  </g>
</svg>
