<svg xmlns="http://www.w3.org/2000/svg" width="90" height="90" viewBox="0 0 90 90">
  <g id="ICON" transform="translate(2 2)">
    <g id="Oval" fill="none" stroke="#00929c" stroke-miterlimit="10" stroke-width="2">
      <circle cx="43" cy="43" r="43" stroke="none"/>
      <circle cx="43" cy="43" r="44" fill="none"/>
    </g>
    <circle id="Oval-2" data-name="Oval" cx="35" cy="35" r="35" transform="translate(8 8)" fill="#00929c"/>
    <path id="Fill_1" data-name="Fill 1" d="M19.153,31.773a5.133,5.133,0,0,1-3.677-1.532,5.3,5.3,0,0,1,0-7.413A5.133,5.133,0,0,1,19.153,21.3a5.239,5.239,0,0,1,0,10.476Zm-2.667-4.38h1.952v1.9a.762.762,0,1,0,1.524,0v-1.9h1.905a.762.762,0,0,0,0-1.524H19.962V23.917a.7.7,0,0,0-.215-.5.855.855,0,0,0-.594-.261.689.689,0,0,0-.491.212.775.775,0,0,0-.224.55v1.952h-2a.752.752,0,0,0-.715.761.8.8,0,0,0,.737.763Zm-5.618.143h0c-2.485-2.828-4.974-5.651-7.381-8.38l-.049-.049a11.292,11.292,0,0,1-2.8-4.4A10.965,10.965,0,0,1,.105,9.535,10.5,10.5,0,0,1,2.611,3.977,11.544,11.544,0,0,1,7.677.535,10.084,10.084,0,0,1,10.154.011C10.237,0,10.33,0,10.437,0s.193,0,.287.005.192.005.287.005h.138A11.057,11.057,0,0,1,21.392,7.3h.047a10.972,10.972,0,0,1-1.715,10.572c-.061.071-.123.153-.182.232s-.1.134-.152.2l-.665.761a7.52,7.52,0,0,0-7.048,7.476v.1l-.808.9Zm.1-21.811a5.35,5.35,0,0,0-3.816,1.62,5.058,5.058,0,0,0-1.471,4.219A5.458,5.458,0,0,0,8.154,15.63a4.939,4.939,0,0,0,2.8.853,5.416,5.416,0,0,0,5.2-3.758,5.173,5.173,0,0,0-.712-4.707,5.242,5.242,0,0,0-4.243-2.3c-.062,0-.125,0-.187,0ZM10.9,14.917h0a3.387,3.387,0,0,1-1.934-.573,3.849,3.849,0,0,1-1.716-2.9,3.562,3.562,0,0,1,1-3s0-.008,0-.017-.005-.025,0-.029A3.965,3.965,0,0,1,11,7.2h.057l.132,0a3.718,3.718,0,0,1,2.965,1.7,3.7,3.7,0,0,1,.569,3.351.051.051,0,0,0,0,.029.162.162,0,0,1,0,.019A4.007,4.007,0,0,1,10.9,14.917Z" transform="translate(31 27)" fill="#fff"/>
  </g>
</svg>
