<svg xmlns="http://www.w3.org/2000/svg" width="18.907" height="23.458" viewBox="0 0 18.907 23.458">
  <path id="Intersection_1" data-name="Intersection 1" d="M7.594,22.858a7.182,7.182,0,0,0-.919-.061A18.225,18.225,0,0,1,4,22.462C2.1,22.1.851,21.445.317,20.428A2.787,2.787,0,0,1,0,19.147a2.756,2.756,0,0,1,.307-1.291c.524-1.017,1.77-1.678,3.7-2.034a19.593,19.593,0,0,1,2.68-.336,30.863,30.863,0,0,1,4.944,0,20.2,20.2,0,0,1,2.67.336c1.908.387,3.154,1.017,3.688,2.034a2.813,2.813,0,0,1,0,2.532c-.533,1.017-1.73,1.688-3.707,2.033a19.217,19.217,0,0,1-2.67.346,22.8,22.8,0,0,1-2.5.091ZM3.144,6.172A6.089,6.089,0,0,1,9.146,0a6.089,6.089,0,0,1,6,6.172,6.089,6.089,0,0,1-6,6.172A6.089,6.089,0,0,1,3.144,6.172Z" transform="translate(0.3 0.3)" fill="none" stroke="#a5a5a5" stroke-width="0.6"/>
</svg>
